<?xml version="1.0" encoding="UTF-8"?>
<svg id="Layer_1" data-name="Layer 1" xmlns="http://www.w3.org/2000/svg" viewBox="0 0 203.54 338.56">
  <defs>
    <style>
      .cls-1 {
        fill: #231f20;
      }

      .cls-1, .cls-2, .cls-3, .cls-4 {
        stroke: #231f20;
        stroke-miterlimit: 10;
      }

      .cls-2 {
        fill: #fee218;
      }

      .cls-3 {
        fill: #79c143;
      }

      .cls-4 {
        fill: #ed1c24;
      }
    </style>
  </defs>
  <circle class="cls-3" cx="166.63" cy="58.19" r="24.15"/>
  <circle class="cls-2" cx="121.48" cy="57.56" r="24.15"/>
  <circle class="cls-4" cx="76.04" cy="59.09" r="24.15"/>
  <path class="cls-1" d="M188.95,21.61C162.54-9.64,61.01-4.83,31.94,27.05c-67.39,73.91-11.1,309.96,26.57,300,2.16-.57-35.06-178.83,26.09-208.7,35.79-17.48,72.18,9.38,102.17-13.04,20.76-15.52,21.83-60.43,2.17-83.7ZM76.28,75.69c-9.81,0-17.08-8.02-17.5-17.5-.42-9.45,8.35-17.5,17.5-17.5,9.81,0,17.08,8.02,17.5,17.5.42,9.45-8.35,17.5-17.5,17.5ZM120.39,75.69c-9.81,0-17.08-8.02-17.5-17.5-.42-9.45,8.35-17.5,17.5-17.5,9.81,0,17.08,8.02,17.5,17.5.42,9.45-8.35,17.5-17.5,17.5ZM165.75,75.06c-9.81,0-17.08-8.02-17.5-17.5-.42-9.45,8.35-17.5,17.5-17.5,9.81,0,17.08,8.02,17.5,17.5.42,9.45-8.35,17.5-17.5,17.5Z"/>
  <path class="cls-1" d="M121.48,117.41c-61.62,0-65.3,50.72-65.76,110.33-.66,85.41,29.44,110.33,65.76,110.33,65.76,0,65.76-49.39,65.76-110.33,0-76.97-12.84-110.33-65.76-110.33ZM122.63,150.76c9.81,0,17.08,8.02,17.5,17.5.42,9.45-8.35,17.5-17.5,17.5-9.81,0-17.08-8.02-17.5-17.5-.42-9.45,8.35-17.5,17.5-17.5ZM120.85,300.4c-9.81,0-17.08-8.02-17.5-17.5-.42-9.45,8.35-17.5,17.5-17.5,9.81,0,17.08,8.02,17.5,17.5.42,9.45-8.35,17.5-17.5,17.5ZM139.54,236.81c-.11,9.81-7.93,17.07-17.5,17.5-9.38.42-17.6-8.34-17.5-17.5.09-7.7,1.1-15.35,1.18-23.05.11-9.81,7.93-17.07,17.5-17.5,9.38-.42,17.6,8.34,17.5,17.5-.09,7.7-1.1,15.35-1.18,23.05Z"/>
</svg>