<svg viewBox="0 0 203.55 348.85" xmlns="http://www.w3.org/2000/svg"><g stroke="#231f20" stroke-miterlimit="10"><circle cx="166.63" cy="58.19" fill="#79c143" r="24.15"/><circle cx="121.48" cy="57.56" fill="#fee218" r="24.15"/><circle cx="76.04" cy="59.09" fill="#ed1c24" r="24.15"/><g fill="#fff"><path d="m188.95 21.61c-26.41-31.25-127.94-26.44-157.01 5.44-67.39 73.91-11.1 309.96 26.57 300 2.16-.57-35.06-178.83 26.09-208.7 35.79-17.48 72.18 9.38 102.17-13.04 20.76-15.52 21.83-60.43 2.17-83.7zm-112.67 54.08c-9.81 0-17.08-8.02-17.5-17.5-.42-9.45 8.35-17.5 17.5-17.5 9.81 0 17.08 8.02 17.5 17.5.42 9.45-8.35 17.5-17.5 17.5zm44.11 0c-9.81 0-17.08-8.02-17.5-17.5-.42-9.45 8.35-17.5 17.5-17.5 9.81 0 17.08 8.02 17.5 17.5.42 9.45-8.35 17.5-17.5 17.5zm45.36-.63c-9.81 0-17.08-8.02-17.5-17.5-.42-9.45 8.35-17.5 17.5-17.5 9.81 0 17.08 8.02 17.5 17.5.42 9.45-8.35 17.5-17.5 17.5z"/><path d="m137.29 127.69c-61.62 0-65.3 50.72-65.76 110.33-.66 85.41 29.44 110.33 65.76 110.33 65.76 0 65.76-49.39 65.76-110.33 0-76.97-12.84-110.33-65.76-110.33zm1.14 33.36c9.81 0 17.08 8.02 17.5 17.5.42 9.45-8.35 17.5-17.5 17.5-9.81 0-17.08-8.02-17.5-17.5-.42-9.45 8.35-17.5 17.5-17.5zm-1.77 149.64c-9.81 0-17.08-8.02-17.5-17.5-.42-9.45 8.35-17.5 17.5-17.5 9.81 0 17.08 8.02 17.5 17.5.42 9.45-8.35 17.5-17.5 17.5zm18.68-63.59c-.11 9.81-7.93 17.07-17.5 17.5-9.38.42-17.6-8.34-17.5-17.5.09-7.7 1.1-15.35 1.18-23.05.11-9.81 7.93-17.07 17.5-17.5 9.38-.42 17.6 8.34 17.5 17.5-.09 7.7-1.1 15.35-1.18 23.05z"/></g></g></svg>