<svg width="57" height="57" fill="none" xmlns="http://www.w3.org/2000/svg"><path opacity=".1" d="M21.202 26.835l-.027-.027a.84.84 0 00-.4-.211l-10.174-1.11 8.23-8.17c.293-.37 2.158-2.274 6.899-1.163C29.779 9.359 35.612 5.26 40.859 2.802A28.43 28.43 0 0028.5 0C12.785 0 0 12.69 0 28.289c0 5.552 1.625 10.707 4.395 15.07l16.434-12.162c.133-1.19.32-2.406.586-3.701a.703.703 0 00-.213-.661z" fill="#fff"/><path opacity=".35" d="M12.2 51.475l12.118-16.1-2.93-2.909L5.141 44.47a25.552 25.552 0 003.223 3.78 31.673 31.673 0 003.835 3.226z" fill="#fff"/><path opacity=".1" d="M57 28.289a27.96 27.96 0 00-2.823-12.267C51.7 21.23 47.57 27.046 40.752 31.065c1.119 4.706-.825 6.557-1.172 6.848l-8.23 8.169-1.119-10.073a.818.818 0 00-.24-.476.764.764 0 00-.692-.211c-1.279.237-2.53.449-3.756.581L13.291 52.19A28.468 28.468 0 0028.5 56.578c15.715 0 28.5-12.69 28.5-28.289zM44.375 9.227c-.88 0-1.731.344-2.344.978-1.305 1.322-1.332 3.358 0 4.68a3.345 3.345 0 004.714 0 3.254 3.254 0 000-4.653 3.278 3.278 0 00-2.37-1.005z" fill="#fff"/><path opacity=".5" d="M45.76 2.274c-5.94 2.009-14.117 6.213-19.124 14.99l-.267.45-.506-.133c-4.528-1.216-5.966.53-6.02.608l-.053.053-6.286 6.24 7.405.793c.453.026.932.264 1.252.635.48.475.692 1.19.56 1.877a39.623 39.623 0 00-.587 3.569l3.276 3.252a45.778 45.778 0 003.596-.555c.133-.027.266-.053.426-.053a2.11 2.11 0 011.492.634c.32.317.532.74.613 1.216v.027l.799 7.35 6.365-6.32c.08-.052 1.838-1.506.613-5.974l-.133-.503.453-.264c8.816-4.997 13.051-13.113 15.075-19.009 1.732-5.076 2.158-9.465 2.238-11.13-1.652.105-6.073.528-11.187 2.247zm1.918 13.536a4.72 4.72 0 01-3.303 1.348 4.66 4.66 0 01-3.276-1.348 4.603 4.603 0 010-6.53A4.674 4.674 0 0144.4 7.905c1.252 0 2.398.476 3.303 1.375 1.785 1.798 1.785 4.706-.026 6.53z" fill="#fff"/></svg>